# xmcd
#
# Track frame offsets:
#	150
#	13166
#	26813
#	42278
#	52663
#	67763
#	81182
#	93777
#	106113
#	120761
#	135535
#	147743
#	164289
#	179357
#	195332
#	210339
#	229772
#	245138
#	263624
#	281933
#	298783
#	311800
#	330737
#
# Disc length: 4709 seconds
#
# Revision: 0
# Processed by: cddbd v1.4PL0 Copyright (c) Steve Scherf et al.
# Submitted via: EasyCDDAExtractor 4.6.0.1
#
DISCID=42126317
DTITLE=Russell Smith - Sunday Best
DYEAR=1900
DGENRE=Country
TTITLE0=If I Didn't Have You
TTITLE1=Hold Me
TTITLE2=Writing On The wall
TTITLE3=Hesitation
TTITLE4=When The Night Comes To Call
TTITLE5=Your Eyes
TTITLE6=She Still Knows How
TTITLE7=A Picture Of You
TTITLE8=Anger And Tears
TTITLE9=Jenny Hold On
TTITLE10=Who's Makin' Love
TTITLE11=What I Learned From Loving You
TTITLE12=I Wonder What She's Doing Tonight
TTITLE13=Lonely Knight
TTITLE14=Mona
TTITLE15=This Little Town
TTITLE16=Southern Music
TTITLE17=Blue Collar Blues
TTITLE18=Night Flight
TTITLE19=If You Change Your Mind
TTITLE20=Sunday Best
TTITLE21=The Boy Next Door
TTITLE22=An American Tragedy
EXTD=
EXTT0=
EXTT1=
EXTT2=
EXTT3=
EXTT4=
EXTT5=
EXTT6=
EXTT7=
EXTT8=
EXTT9=
EXTT10=
EXTT11=
EXTT12=
EXTT13=
EXTT14=
EXTT15=
EXTT16=
EXTT17=
EXTT18=
EXTT19=
EXTT20=
EXTT21=
EXTT22=
PLAYORDER=
